<?xml version="1.0" encoding="utf-8"?>
<!-- Generator: Adobe Illustrator 20.1.0, SVG Export Plug-In . SVG Version: 6.00 Build 0)  -->
<svg version="1.0" id="Camada_1" xmlns="http://www.w3.org/2000/svg" xmlns:xlink="http://www.w3.org/1999/xlink" x="0px" y="0px"
	 viewBox="0 0 545.2 361.5" style="enable-background:new 0 0 545.2 361.5;" xml:space="preserve" preserveAspectRatio="xMinYMin slice">
<style> * {fill: #aa441d; }</style>
<g>
	<g>
		<path d="M527,270.9c1.1,0,2.3,0.3,3.4,0.9c1.1,0.6,1.9,1.4,2.6,2.5c0.6,1.1,0.9,2.2,0.9,3.4c0,1.2-0.3,2.3-0.9,3.4
			c-0.6,1.1-1.4,1.9-2.5,2.5s-2.2,0.9-3.4,0.9s-2.3-0.3-3.4-0.9s-1.9-1.4-2.5-2.5c-0.6-1.1-0.9-2.2-0.9-3.4c0-1.2,0.3-2.3,0.9-3.4
			c0.6-1.1,1.5-1.9,2.6-2.5C524.8,271.1,525.9,270.9,527,270.9z M527,272c-1,0-1.9,0.2-2.8,0.7s-1.6,1.2-2.1,2.1
			c-0.5,0.9-0.8,1.9-0.8,2.9c0,1,0.3,1.9,0.8,2.8c0.5,0.9,1.2,1.6,2.1,2.1c0.9,0.5,1.9,0.8,2.8,0.8s1.9-0.3,2.8-0.8
			c0.9-0.5,1.6-1.2,2.1-2.1c0.5-0.9,0.8-1.8,0.8-2.8c0-1-0.3-1.9-0.8-2.9c-0.5-0.9-1.2-1.6-2.1-2.1S528,272,527,272z M524,281.5
			v-7.4h2.5c0.9,0,1.5,0.1,1.9,0.2c0.4,0.1,0.7,0.4,0.9,0.7c0.2,0.3,0.3,0.7,0.3,1.1c0,0.5-0.2,1-0.6,1.4s-0.9,0.6-1.5,0.7
			c0.3,0.1,0.5,0.2,0.6,0.4c0.3,0.3,0.7,0.8,1.1,1.5l0.9,1.4h-1.5l-0.7-1.2c-0.5-0.9-0.9-1.5-1.2-1.7c-0.2-0.2-0.5-0.3-1-0.3h-0.7
			v3.1H524z M525.2,277.3h1.4c0.7,0,1.2-0.1,1.4-0.3c0.3-0.2,0.4-0.5,0.4-0.8c0-0.2-0.1-0.4-0.2-0.6c-0.1-0.2-0.3-0.3-0.5-0.4
			c-0.2-0.1-0.6-0.1-1.2-0.1h-1.3V277.3z"/>
	</g>
	<path d="M21,62.6c-1.8-6.8,2.3-13.8,9.1-15.5c6.8-1.8,13.8,2.3,15.5,9.1c1.8,6.8-2.3,13.8-9.1,15.5C29.8,73.5,22.8,69.4,21,62.6
		 M508.6,71.7c6.8,1.8,13.8-2.3,15.5-9.1c1.8-6.8-2.3-13.8-9.1-15.5c-6.8-1.8-13.8,2.3-15.5,9.1C497.8,62.9,501.8,69.9,508.6,71.7
		 M462.6,54.4c-4.5-1-8.9-2-13.4-2.9c-4.5-0.9-9-1.8-13.5-2.6c-4.5-0.8-9-1.6-13.6-2.3c-4.5-0.7-9.1-1.4-13.6-2
		c-4.6-0.6-9.1-1.2-13.7-1.7c-4.6-0.5-9.1-1-13.7-1.4c-3.8-0.4-7.6-0.7-11.4-1c-0.9-2.7-1.7-5.5-2.5-8.3c-1-3.5-1.9-7-2.7-10.5
		c-0.3-1-1-2-2-2.4c-1.8-0.8-3.9,0.1-4.6,1.8l0,0l-14.1,32.8L331.1,2.8c-0.3-1.3-1.4-2.5-2.9-2.8c-2-0.4-4,0.9-4.5,2.9l0,0
		c-2.4,11.5-4.9,23.1-7.6,34.5c-9.3-0.2-18.6-0.4-27.9-0.5c-10.4-0.1-20.7,0-31.1,0.1l-15.5,0.3c-5.2,0.1-10.4,0.2-15.5,0.4
		c-10.4,0.4-20.7,0.8-31,1.3c-5.2,0.3-10.3,0.5-15.5,0.9l-15.5,1c-5.2,0.4-10.3,0.7-15.5,1.2c-5.2,0.4-10.3,0.9-15.5,1.4
		c-5.2,0.5-10.3,1-15.5,1.6c-5.1,0.5-10.3,1.2-15.4,1.8c-5.1,0.7-10.3,1.4-15.4,2.2c-5.1,0.8-10.2,1.7-15.3,2.6
		c5.2-0.4,10.3-0.8,15.5-1.1c5.1-0.4,10.3-0.6,15.5-0.9c5.2-0.3,10.3-0.6,15.5-0.8l15.5-0.7c10.3-0.4,20.6-0.7,31-1.1l31-0.8
		c10.3-0.3,20.6-0.5,31-0.6l15.5-0.3l15.5-0.2l31-0.1c10.3,0,20.6,0.1,30.9,0.3l0,0c1.8,0,3.5-1.2,3.9-3.1c1.5-6.3,2.8-12.6,4.1-19
		l0.6-2.9l11.5,45.3l0,0c0.3,1,1,2,2.1,2.4c1.8,0.8,3.9-0.1,4.7-1.9l14.2-33.3c0.1,0.3,0.2,0.6,0.2,0.8c1,3.6,2.1,7.1,3.4,10.7
		l0,0.1c0.4,1.2,1.6,2.1,3,2.2c4.6,0.2,9.1,0.4,13.7,0.7c4.6,0.3,9.1,0.5,13.7,0.9c4.6,0.3,9.1,0.6,13.7,1c4.5,0.4,9.1,0.8,13.6,1.2
		c4.5,0.5,9.1,0.9,13.6,1.4c4.5,0.5,9.1,1.1,13.6,1.6c4.5,0.6,9.1,1.2,13.6,1.8c4.5,0.6,9.1,1.3,13.6,2
		C471.5,56.5,467.1,55.4,462.6,54.4 M504.7,152.3c5.3,1.2,9,5.9,9,11.3v110c0,5.5-3.8,10.2-9.1,11.4c-27.3,6-114.3,22.7-235.6,22.7
		c-120.5,0-202.1-16.5-228.2-22.6c-5.3-1.2-9-5.9-9-11.3V163.5c0-5.3,3.6-10,8.8-11.3c27.7-6.8,117.6-26.7,228.4-26.7
		C380.3,125.5,475.7,145.6,504.7,152.3 M453.6,170.2c0-4.7-3.3-8.9-7.9-9.9c-25.4-5.9-78.7-23.5-176.3-23.5
		c-97.1,0-180.1,17.4-204.3,23.4c-4.5,1.1-7.7,5.2-7.7,9.9v96.6c0,4.7,3.3,8.8,7.9,9.9c22.9,5.3,98.6,19.8,204.2,19.8
		c106.3,0,152.2-14.6,176.2-19.9c4.7-1,8-5.2,8-10V170.2z M483.6,228.4c6.5,0,11.8-5.3,11.8-11.8s-5.3-11.8-11.8-11.8
		c-6.5,0-11.8,5.3-11.8,11.8S477.1,228.4,483.6,228.4 M75.4,93.2C77,98.5,69.2,105.8,57,111c5.4,7.7,15.7,19.3,17,21.3
		c0.3,0.4,0.4,0.9,0.4,1.5c0,1.2-0.7,2.3-1.8,2.6c-0.5,0.2-10.4,2.3-19.4,4.4c-8.9,2.3-18.7,5-19.2,5.1c-1.1,0.2-2.2-0.5-2.8-1.5
		c-0.3-0.5-0.4-1-0.3-1.5c0.2-2.4,4-17.4,5.2-26.8c-13.2,1-23.5-1.8-24.5-7.3c-1.2-6.3,10.1-13.9,25.7-17.6c0-6.2-0.1-10.8-0.1-10.8
		c0-0.5,0.3-1,0.9-1.1c0.5-0.1,1,0.1,1.3,0.6c0,0,2,4.1,4.9,9.6C60,85.5,73.5,87,75.4,93.2 M36.6,113.4c0.6-5.8,0.8-12.9,0.9-19
		c-11.5,3-19.7,8.6-18.8,13.3C19.5,111.8,26.9,113.9,36.6,113.4 M55.5,108.8c8.8-4,14.4-9.4,13.2-13.3c-1.4-4.6-11.2-5.7-22.8-3.1
		C48.8,97.7,52.3,103.9,55.5,108.8 M488.2,111c-12.2-5.2-20-12.5-18.4-17.9c1.8-6.1,15.3-7.6,31-3.7c2.9-5.5,4.9-9.6,4.9-9.6
		c0.2-0.5,0.7-0.7,1.3-0.6c0.5,0.1,0.9,0.5,0.9,1.1c0,0-0.1,4.6-0.1,10.8c15.7,3.7,27,11.3,25.7,17.6c-1.1,5.5-11.4,8.3-24.5,7.3
		c1.2,9.4,5,24.4,5.2,26.8c0,0.5-0.1,1-0.3,1.5c-0.5,1-1.7,1.7-2.8,1.5c-0.5-0.1-10.3-2.7-19.2-5.1c-9-2.1-18.9-4.2-19.4-4.4
		c-1.1-0.3-1.8-1.4-1.8-2.6c0-0.5,0.2-1.1,0.4-1.5C472.5,130.3,482.8,118.8,488.2,111 M507.7,94.4c0.1,6.1,0.3,13.2,0.9,19
		c9.7,0.5,17.1-1.6,17.9-5.7C527.4,103,519.3,97.4,507.7,94.4 M476.5,95.4c-1.2,4,4.4,9.3,13.2,13.3c3.2-4.9,6.7-11,9.6-16.4
		C487.7,89.7,477.9,90.9,476.5,95.4 M1.2,343.1c-0.3,0-0.6,0.1-0.8,0.4c-0.2,0.2-0.3,0.5-0.3,0.8V360c0,0.3,0.1,0.6,0.3,0.8
		s0.5,0.3,0.8,0.3h5.2c2.9,0,5.2-1,6.9-2.9c0.8-0.8,1.3-1.8,1.7-2.9c0.4-1.1,0.6-2.2,0.6-3.3s-0.2-2.2-0.6-3.3
		c-0.4-1.1-0.9-2-1.7-2.9c-1.7-1.9-4-2.9-6.9-2.9H1.2z M2.4,359v-13.7h3.7c2.1,0,3.9,0.6,5.2,1.9c1.3,1.3,1.9,2.9,1.9,5
		c0,2-0.6,3.7-1.9,5c-1.3,1.3-3.1,1.9-5.2,1.9H2.4z M33.7,359h-9.2v-5.8h8.3c0.3,0,0.6-0.1,0.8-0.3c0.2-0.2,0.3-0.5,0.3-0.8
		c0-0.3-0.1-0.6-0.3-0.8c-0.2-0.2-0.5-0.3-0.8-0.3h-8.3v-5.7h9.2c0.3,0,0.6-0.1,0.8-0.3c0.2-0.2,0.3-0.5,0.3-0.8
		c0-0.3-0.1-0.6-0.3-0.8c-0.2-0.2-0.5-0.3-0.8-0.3H23.3c-0.3,0-0.6,0.1-0.8,0.4c-0.2,0.2-0.3,0.5-0.3,0.8V360c0,0.3,0.1,0.6,0.3,0.8
		s0.5,0.3,0.8,0.3h10.4c0.3,0,0.6-0.1,0.8-0.3c0.2-0.2,0.3-0.5,0.3-0.8c0-0.3-0.1-0.6-0.3-0.8C34.3,359.1,34,359,33.7,359z
		 M43.8,358.9c-0.8-0.2-1.5-0.4-1.8-0.6c-0.4-0.2-0.7-0.2-0.9-0.2c-0.3,0-0.5,0.1-0.7,0.3c-0.2,0.2-0.3,0.5-0.3,0.7s0.1,0.5,0.2,0.7
		c0.1,0.2,0.3,0.3,0.5,0.4c1.9,0.8,4,1.2,6.2,1.2c2,0,3.6-0.5,4.9-1.4c1.2-0.9,1.8-2.1,1.8-3.6c0-1.6-0.6-2.8-1.7-3.6
		c-0.5-0.4-1.1-0.7-1.8-0.9c-0.7-0.2-1.3-0.4-2-0.6c-0.7-0.2-1.4-0.3-2-0.5s-1.2-0.4-1.8-0.6c-1.1-0.5-1.7-1.2-1.7-2.2
		c0-1,0.4-1.7,1.3-2.2c0.9-0.5,2-0.8,3.3-0.8c1.5,0,2.7,0.2,3.9,0.6c0.4,0.1,0.7,0.2,0.9,0.2s0.4-0.1,0.6-0.4
		c0.2-0.2,0.3-0.5,0.3-0.7c0-0.5-0.2-0.9-0.7-1c-1.6-0.6-3.3-0.9-5.2-0.9c-2.1,0-3.8,0.5-5,1.6c-1.1,1-1.7,2.2-1.7,3.7
		c0,1.4,0.6,2.6,1.7,3.4c0.5,0.4,1.1,0.7,1.8,0.9c0.7,0.2,1.3,0.5,2,0.7c0.7,0.2,1.4,0.4,2,0.5c0.7,0.2,1.3,0.4,1.8,0.6
		c1.2,0.5,1.7,1.2,1.7,2c0,2-1.5,3-4.6,3C45.6,359.2,44.7,359.1,43.8,358.9z M68.1,344c-0.3-0.7-0.8-1.1-1.5-1.1h-0.3
		c-0.7,0-1.2,0.4-1.5,1.1l-6.6,15.7c-0.1,0.2-0.1,0.4-0.1,0.7c0,0.2,0.1,0.5,0.3,0.7s0.5,0.3,1,0.3c0.5,0,0.8-0.2,1-0.7l1.7-4.1h8.8
		l1.7,4.1c0.2,0.5,0.5,0.7,1,0.7s0.8-0.1,1-0.3s0.3-0.5,0.3-0.7c0-0.2,0-0.5-0.1-0.7L68.1,344z M62.9,354.4l3.5-8.5l3.5,8.5H62.9z
		 M91.9,345.3c0.3,0,0.6-0.1,0.8-0.3c0.2-0.2,0.3-0.5,0.3-0.8c0-0.3-0.1-0.6-0.3-0.8c-0.2-0.2-0.5-0.3-0.8-0.3H81.8
		c-0.3,0-0.6,0.1-0.8,0.4c-0.2,0.2-0.3,0.5-0.3,0.8v15.9c0,0.3,0.1,0.6,0.3,0.8s0.5,0.3,0.8,0.3c0.3,0,0.6-0.1,0.8-0.3
		s0.4-0.5,0.4-0.8v-6.9h8c0.3,0,0.6-0.1,0.8-0.3s0.3-0.5,0.3-0.8c0-0.3-0.1-0.6-0.3-0.8S91.3,351,91,351h-8v-5.7H91.9z M99.4,343.3
		c-0.2,0.2-0.3,0.5-0.3,0.8v16c0,0.3,0.1,0.6,0.3,0.8s0.5,0.3,0.8,0.3c0.3,0,0.6-0.1,0.8-0.3s0.4-0.5,0.4-0.8v-16
		c0-0.3-0.1-0.6-0.4-0.8c-0.2-0.2-0.5-0.4-0.8-0.4C99.9,342.9,99.6,343.1,99.4,343.3z M110.5,345.4c-1.6,1.7-2.5,4-2.5,6.7
		c0,2.7,0.9,5,2.5,6.7c1.6,1.8,3.8,2.6,6.6,2.6c2.7,0,4.9-0.9,6.6-2.6c1.6-1.7,2.5-4,2.5-6.7c-0.1-2.8-0.9-5-2.5-6.7
		c-1.7-1.8-3.9-2.6-6.6-2.6C114.4,342.8,112.2,343.7,110.5,345.4z M112.1,357.2c-1.2-1.3-1.8-3-1.8-5.1c0-2.1,0.6-3.8,1.8-5.1
		c1.2-1.4,2.9-2.1,5-2.1c2.1,0,3.8,0.7,5,2.1c1.2,1.3,1.8,3,1.8,5.1c0,2.1-0.6,3.8-1.8,5.1c-1.2,1.4-2.9,2.1-5,2.1
		C115,359.3,113.3,358.6,112.1,357.2z M135.3,358.9c-0.8-0.2-1.5-0.4-1.8-0.6c-0.4-0.2-0.7-0.2-0.9-0.2c-0.3,0-0.5,0.1-0.7,0.3
		c-0.2,0.2-0.3,0.5-0.3,0.7s0.1,0.5,0.2,0.7c0.1,0.2,0.3,0.3,0.5,0.4c1.9,0.8,4,1.2,6.2,1.2c2,0,3.6-0.5,4.9-1.4
		c1.2-0.9,1.8-2.1,1.8-3.6c0-1.6-0.6-2.8-1.7-3.6c-0.5-0.4-1.1-0.7-1.8-0.9c-0.7-0.2-1.3-0.4-2-0.6c-0.7-0.2-1.4-0.3-2-0.5
		s-1.2-0.4-1.8-0.6c-1.1-0.5-1.7-1.2-1.7-2.2c0-1,0.4-1.7,1.3-2.2c0.9-0.5,2-0.8,3.3-0.8c1.5,0,2.7,0.2,3.9,0.6
		c0.4,0.1,0.7,0.2,0.9,0.2s0.4-0.1,0.6-0.4c0.2-0.2,0.3-0.5,0.3-0.7c0-0.5-0.2-0.9-0.7-1c-1.6-0.6-3.3-0.9-5.2-0.9
		c-2.1,0-3.8,0.5-5,1.6c-1.1,1-1.7,2.2-1.7,3.7c0,1.4,0.6,2.6,1.7,3.4c0.5,0.4,1.1,0.7,1.8,0.9c0.7,0.2,1.3,0.5,2,0.7
		c0.7,0.2,1.4,0.4,2,0.5c0.7,0.2,1.3,0.4,1.8,0.6c1.2,0.5,1.7,1.2,1.7,2c0,2-1.5,3-4.6,3C137.1,359.2,136.2,359.1,135.3,358.9z
		 M181.7,359h-9.2v-5.8h8.3c0.3,0,0.6-0.1,0.8-0.3c0.2-0.2,0.3-0.5,0.3-0.8c0-0.3-0.1-0.6-0.3-0.8c-0.2-0.2-0.5-0.3-0.8-0.3h-8.3
		v-5.7h9.2c0.3,0,0.6-0.1,0.8-0.3c0.2-0.2,0.3-0.5,0.3-0.8c0-0.3-0.1-0.6-0.3-0.8c-0.2-0.2-0.5-0.3-0.8-0.3h-10.4
		c-0.3,0-0.6,0.1-0.8,0.4c-0.2,0.2-0.3,0.5-0.3,0.8V360c0,0.3,0.1,0.6,0.3,0.8s0.5,0.3,0.8,0.3h10.4c0.3,0,0.6-0.1,0.8-0.3
		c0.2-0.2,0.3-0.5,0.3-0.8c0-0.3-0.1-0.6-0.3-0.8C182.3,359.1,182,359,181.7,359z M190.5,343.1c-0.3,0-0.6,0.1-0.8,0.4
		c-0.2,0.2-0.3,0.5-0.3,0.8V360c0,0.3,0.1,0.6,0.3,0.8s0.5,0.3,0.8,0.3h5.2c2.9,0,5.2-1,6.9-2.9c0.8-0.8,1.3-1.8,1.7-2.9
		c0.4-1.1,0.6-2.2,0.6-3.3s-0.2-2.2-0.6-3.3c-0.4-1.1-0.9-2-1.7-2.9c-1.7-1.9-4-2.9-6.9-2.9H190.5z M191.7,359v-13.7h3.7
		c2.1,0,3.9,0.6,5.2,1.9c1.3,1.3,1.9,2.9,1.9,5c0,2-0.6,3.7-1.9,5c-1.3,1.3-3.1,1.9-5.2,1.9H191.7z M224.2,343.3
		c-0.2,0.2-0.3,0.5-0.3,0.8v10.3c0,1.5-0.5,2.8-1.6,3.6c-1,0.8-2.1,1.2-3.5,1.2c-1.4,0-2.5-0.4-3.5-1.2c-1.1-0.9-1.6-2.1-1.6-3.6
		v-10.3c0-0.3-0.1-0.6-0.4-0.8c-0.2-0.2-0.5-0.4-0.8-0.4c-0.3,0-0.6,0.1-0.8,0.4c-0.2,0.2-0.3,0.5-0.3,0.8v10.3
		c0,2.3,0.8,4.1,2.4,5.4c1.4,1.1,3.1,1.7,5,1.7c1.9,0,3.6-0.6,5-1.7c1.6-1.3,2.4-3.1,2.4-5.4v-10.3c0-0.3-0.1-0.6-0.4-0.8
		c-0.2-0.2-0.5-0.4-0.8-0.4C224.7,342.9,224.4,343.1,224.2,343.3z M244.6,358.9c-0.7,0.2-1.6,0.3-2.6,0.3c-2.2,0-4-0.7-5.2-2.1
		c-1.2-1.3-1.7-2.9-1.7-5s0.6-3.8,1.7-5c0.6-0.6,1.3-1.1,2.2-1.5c0.9-0.4,1.9-0.5,2.9-0.5c1.1,0,2,0.1,2.7,0.3
		c0.7,0.2,1.4,0.5,2.1,0.9c0.1,0.1,0.3,0.1,0.6,0.1s0.5-0.1,0.7-0.3c0.2-0.2,0.3-0.4,0.3-0.7s-0.1-0.5-0.2-0.6s-0.4-0.4-0.9-0.7
		c-0.5-0.3-1.2-0.6-2.1-0.9c-0.9-0.3-2-0.5-3.3-0.5c-2.7,0-4.8,0.8-6.5,2.5c-1.7,1.7-2.6,4-2.6,6.8c0,2.9,0.9,5.1,2.6,6.8
		c0.8,0.8,1.8,1.4,2.9,1.9s2.3,0.6,3.6,0.6c1.3,0,2.4-0.2,3.3-0.5c0.9-0.3,1.8-0.7,2.6-1.1c0.4-0.2,0.6-0.5,0.6-1
		c0-0.3-0.1-0.5-0.3-0.7c-0.2-0.2-0.4-0.3-0.7-0.3s-0.4,0-0.6,0.1C246,358.4,245.3,358.7,244.6,358.9z M262.6,344
		c-0.3-0.7-0.8-1.1-1.5-1.1h-0.3c-0.7,0-1.2,0.4-1.5,1.1l-6.6,15.7c-0.1,0.2-0.1,0.4-0.1,0.7c0,0.2,0.1,0.5,0.3,0.7s0.5,0.3,1,0.3
		c0.5,0,0.8-0.2,1-0.7l1.7-4.1h8.8l1.7,4.1c0.2,0.5,0.5,0.7,1,0.7s0.8-0.1,1-0.3s0.3-0.5,0.3-0.7c0-0.2,0-0.5-0.1-0.7L262.6,344z
		 M257.5,354.4l3.5-8.5l3.5,8.5H257.5z M286.1,358.9c-0.7,0.2-1.6,0.3-2.6,0.3c-2.2,0-4-0.7-5.2-2.1c-1.2-1.3-1.7-2.9-1.7-5
		s0.6-3.8,1.7-5c0.6-0.6,1.3-1.1,2.2-1.5c0.9-0.4,1.9-0.5,2.9-0.5c1.1,0,2,0.1,2.7,0.3c0.7,0.2,1.4,0.5,2.1,0.9
		c0.1,0.1,0.3,0.1,0.6,0.1c0.3,0,0.5-0.1,0.7-0.3c0.2-0.2,0.3-0.4,0.3-0.7s-0.1-0.5-0.2-0.6c-0.1-0.2-0.4-0.4-0.9-0.7
		c-0.5-0.3-1.2-0.6-2.1-0.9c-0.9-0.3-2-0.5-3.3-0.5c-2.7,0-4.8,0.8-6.5,2.5c-1.7,1.7-2.6,4-2.6,6.8c0,2.9,0.9,5.1,2.6,6.8
		c0.8,0.8,1.8,1.4,2.9,1.9s2.3,0.6,3.6,0.6c1.3,0,2.4-0.2,3.3-0.5c0.9-0.3,1.8-0.7,2.6-1.1c0.4-0.2,0.6-0.5,0.6-1
		c0-0.3-0.1-0.5-0.3-0.7c-0.2-0.2-0.4-0.3-0.7-0.3c-0.3,0-0.4,0-0.6,0.1C287.5,358.4,286.8,358.7,286.1,358.9z M296.3,343.3
		c-0.2,0.2-0.3,0.5-0.3,0.8v16c0,0.3,0.1,0.6,0.3,0.8c0.2,0.2,0.5,0.3,0.8,0.3c0.3,0,0.6-0.1,0.8-0.3s0.4-0.5,0.4-0.8v-16
		c0-0.3-0.1-0.6-0.4-0.8c-0.2-0.2-0.5-0.4-0.8-0.4C296.8,342.9,296.5,343.1,296.3,343.3z M307.4,345.4c-1.6,1.7-2.5,4-2.5,6.7
		c0,2.7,0.9,5,2.5,6.7c1.6,1.8,3.8,2.6,6.6,2.6c2.7,0,4.9-0.9,6.6-2.6c1.6-1.7,2.5-4,2.5-6.7c-0.1-2.8-0.9-5-2.5-6.7
		c-1.7-1.8-3.9-2.6-6.6-2.6C311.2,342.8,309,343.7,307.4,345.4z M309,357.2c-1.2-1.3-1.8-3-1.8-5.1c0-2.1,0.6-3.8,1.8-5.1
		c1.2-1.4,2.9-2.1,5-2.1c2.1,0,3.8,0.7,5,2.1c1.2,1.3,1.8,3,1.8,5.1c0,2.1-0.6,3.8-1.8,5.1c-1.2,1.4-2.9,2.1-5,2.1
		C311.9,359.3,310.2,358.6,309,357.2z M343.4,343.3c-0.2,0.2-0.3,0.5-0.3,0.8v14l-10-14.5c-0.4-0.5-0.9-0.8-1.4-0.8h-0.3
		c-0.5,0-0.9,0.2-1.2,0.5c-0.3,0.3-0.5,0.7-0.5,1.2v15.5c0,0.3,0.1,0.6,0.3,0.8c0.2,0.2,0.5,0.3,0.8,0.3c0.3,0,0.6-0.1,0.8-0.3
		s0.4-0.5,0.4-0.8v-14.1l10.1,14.5c0.3,0.5,0.8,0.7,1.4,0.7h0.3c0.5,0,0.9-0.2,1.2-0.5c0.3-0.3,0.5-0.7,0.5-1.2v-15.5
		c0-0.3-0.1-0.6-0.4-0.8c-0.2-0.2-0.5-0.4-0.8-0.4C343.9,342.9,343.7,343.1,343.4,343.3z M361.3,344c-0.3-0.7-0.8-1.1-1.5-1.1h-0.3
		c-0.7,0-1.2,0.4-1.5,1.1l-6.6,15.7c-0.1,0.2-0.1,0.4-0.1,0.7c0,0.2,0.1,0.5,0.3,0.7s0.5,0.3,1,0.3c0.5,0,0.8-0.2,1-0.7l1.7-4.1h8.8
		l1.7,4.1c0.2,0.5,0.5,0.7,1,0.7c0.5,0,0.8-0.1,1-0.3s0.3-0.5,0.3-0.7c0-0.2,0-0.5-0.1-0.7L361.3,344z M356.1,354.4l3.5-8.5l3.5,8.5
		H356.1z M374.2,343.3c-0.2,0.2-0.3,0.5-0.3,0.8v16c0,0.3,0.1,0.6,0.3,0.8c0.2,0.2,0.5,0.3,0.8,0.3c0.3,0,0.6-0.1,0.8-0.3
		s0.4-0.5,0.4-0.8v-16c0-0.3-0.1-0.6-0.4-0.8c-0.2-0.2-0.5-0.4-0.8-0.4C374.7,342.9,374.4,343.1,374.2,343.3z M386.4,358.9
		c-0.8-0.2-1.5-0.4-1.8-0.6c-0.4-0.2-0.7-0.2-0.9-0.2c-0.3,0-0.5,0.1-0.7,0.3c-0.2,0.2-0.3,0.5-0.3,0.7s0.1,0.5,0.2,0.7
		c0.1,0.2,0.3,0.3,0.5,0.4c1.9,0.8,4,1.2,6.2,1.2c2,0,3.6-0.5,4.9-1.4c1.2-0.9,1.8-2.1,1.8-3.6c0-1.6-0.6-2.8-1.7-3.6
		c-0.5-0.4-1.1-0.7-1.8-0.9c-0.7-0.2-1.3-0.4-2-0.6c-0.7-0.2-1.4-0.3-2-0.5c-0.7-0.2-1.2-0.4-1.8-0.6c-1.1-0.5-1.7-1.2-1.7-2.2
		c0-1,0.4-1.7,1.3-2.2c0.9-0.5,2-0.8,3.3-0.8c1.5,0,2.7,0.2,3.9,0.6c0.4,0.1,0.7,0.2,0.9,0.2c0.2,0,0.4-0.1,0.6-0.4
		c0.2-0.2,0.3-0.5,0.3-0.7c0-0.5-0.2-0.9-0.7-1c-1.6-0.6-3.3-0.9-5.2-0.9c-2.1,0-3.8,0.5-5,1.6c-1.1,1-1.7,2.2-1.7,3.7
		c0,1.4,0.6,2.6,1.7,3.4c0.5,0.4,1.1,0.7,1.8,0.9c0.7,0.2,1.3,0.5,2,0.7c0.7,0.2,1.4,0.4,2,0.5c0.7,0.2,1.3,0.4,1.8,0.6
		c1.2,0.5,1.7,1.2,1.7,2c0,2-1.5,3-4.5,3C388.2,359.2,387.2,359.1,386.4,358.9z M422.3,343.1c-0.3,0-0.6,0.1-0.8,0.4
		c-0.2,0.2-0.3,0.5-0.3,0.8V360c0,0.3,0.1,0.6,0.3,0.8c0.2,0.2,0.5,0.3,0.8,0.3h5.2c2.9,0,5.2-1,6.9-2.9c0.8-0.8,1.3-1.8,1.7-2.9
		c0.4-1.1,0.6-2.2,0.6-3.3s-0.2-2.2-0.6-3.3c-0.4-1.1-0.9-2-1.7-2.9c-1.7-1.9-4-2.9-6.9-2.9H422.3z M423.5,359v-13.7h3.7
		c2.1,0,3.9,0.6,5.2,1.9c1.3,1.3,1.9,2.9,1.9,5c0,2-0.6,3.7-1.9,5c-1.3,1.3-3.1,1.9-5.2,1.9H423.5z M443.6,343.3
		c-0.2,0.2-0.3,0.5-0.3,0.8v16c0,0.3,0.1,0.6,0.3,0.8c0.2,0.2,0.5,0.3,0.8,0.3c0.3,0,0.6-0.1,0.8-0.3s0.4-0.5,0.4-0.8v-16
		c0-0.3-0.1-0.6-0.4-0.8c-0.2-0.2-0.5-0.4-0.8-0.4C444.1,342.9,443.8,343.1,443.6,343.3z M456.4,357.2c-1.2-1.3-1.9-3-1.9-5
		c0-2.2,0.7-4,2-5.3c1.3-1.2,2.9-1.8,4.9-1.8c1.7,0,3.4,0.5,5.1,1.5c0.2,0.1,0.4,0.1,0.7,0.1s0.5-0.1,0.7-0.3
		c0.2-0.2,0.3-0.5,0.3-0.9s-0.2-0.6-0.5-0.8c-0.8-0.5-1.7-1-2.7-1.3c-1-0.4-2.3-0.5-3.7-0.5c-2.6,0-4.7,0.8-6.4,2.5
		c-1.8,1.8-2.6,4.1-2.6,6.8c0,2.7,0.8,5,2.5,6.7c1.7,1.7,3.9,2.6,6.6,2.6c2,0,4-0.5,6-1.5c0.3-0.1,0.5-0.4,0.7-0.6
		c0.2-0.3,0.3-0.6,0.3-1v-5.9c0-0.3-0.1-0.6-0.4-0.9s-0.5-0.4-0.9-0.4h-5.1c-0.3,0-0.5,0.1-0.8,0.3c-0.2,0.2-0.3,0.5-0.3,0.8
		s0.1,0.5,0.3,0.8s0.5,0.3,0.8,0.3h4.3v4.7c-1.4,0.8-2.9,1.1-4.5,1.1C459.4,359.2,457.7,358.6,456.4,357.2z M475.6,343.3
		c-0.2,0.2-0.3,0.5-0.3,0.8v16c0,0.3,0.1,0.6,0.3,0.8c0.2,0.2,0.5,0.3,0.8,0.3c0.3,0,0.6-0.1,0.8-0.3s0.4-0.5,0.4-0.8v-16
		c0-0.3-0.1-0.6-0.4-0.8c-0.2-0.2-0.5-0.4-0.8-0.4C476.1,342.9,475.8,343.1,475.6,343.3z M497.1,343.1h-12.9c-0.3,0-0.6,0.1-0.8,0.3
		c-0.2,0.2-0.3,0.5-0.3,0.8c0,0.3,0.1,0.6,0.3,0.8s0.5,0.3,0.8,0.3h5.3v14.9c0,0.3,0.1,0.6,0.3,0.8s0.5,0.3,0.8,0.3s0.6-0.1,0.8-0.3
		c0.2-0.2,0.4-0.5,0.4-0.8v-14.9h5.3c0.3,0,0.6-0.1,0.8-0.3c0.2-0.2,0.3-0.5,0.3-0.8c0-0.3-0.1-0.6-0.3-0.8
		C497.7,343.2,497.4,343.1,497.1,343.1z M510.3,344c-0.3-0.7-0.8-1.1-1.5-1.1h-0.3c-0.7,0-1.2,0.4-1.5,1.1l-6.6,15.7
		c-0.1,0.2-0.1,0.4-0.1,0.7c0,0.2,0.1,0.5,0.3,0.7s0.5,0.3,1,0.3c0.5,0,0.8-0.2,1-0.7l1.7-4.1h8.8l1.7,4.1c0.2,0.5,0.5,0.7,1,0.7
		c0.5,0,0.8-0.1,1-0.3s0.3-0.5,0.3-0.7c0-0.2,0-0.5-0.1-0.7L510.3,344z M505.2,354.4l3.5-8.5l3.5,8.5H505.2z M523.2,343.3
		c-0.2,0.2-0.3,0.5-0.3,0.8v16c0,0.3,0.1,0.6,0.3,0.8c0.2,0.2,0.5,0.3,0.8,0.3c0.3,0,0.6-0.1,0.8-0.3s0.4-0.5,0.4-0.8v-16
		c0-0.3-0.1-0.6-0.4-0.8c-0.2-0.2-0.5-0.4-0.8-0.4C523.7,342.9,523.4,343.1,523.2,343.3z M535.4,358.9c-0.8-0.2-1.5-0.4-1.8-0.6
		c-0.4-0.2-0.7-0.2-0.9-0.2c-0.3,0-0.5,0.1-0.7,0.3c-0.2,0.2-0.3,0.5-0.3,0.7s0.1,0.5,0.2,0.7c0.1,0.2,0.3,0.3,0.5,0.4
		c1.9,0.8,4,1.2,6.2,1.2c2,0,3.6-0.5,4.9-1.4c1.2-0.9,1.8-2.1,1.8-3.6c0-1.6-0.6-2.8-1.7-3.6c-0.5-0.4-1.1-0.7-1.8-0.9
		c-0.7-0.2-1.3-0.4-2-0.6c-0.7-0.2-1.4-0.3-2-0.5c-0.7-0.2-1.2-0.4-1.8-0.6c-1.1-0.5-1.7-1.2-1.7-2.2c0-1,0.4-1.7,1.3-2.2
		c0.9-0.5,2-0.8,3.3-0.8c1.5,0,2.7,0.2,3.9,0.6c0.4,0.1,0.7,0.2,0.9,0.2c0.2,0,0.4-0.1,0.6-0.4c0.2-0.2,0.3-0.5,0.3-0.7
		c0-0.5-0.2-0.9-0.7-1c-1.6-0.6-3.3-0.9-5.2-0.9c-2.1,0-3.8,0.5-5,1.6c-1.1,1-1.7,2.2-1.7,3.7c0,1.4,0.6,2.6,1.7,3.4
		c0.5,0.4,1.1,0.7,1.8,0.9c0.7,0.2,1.3,0.5,2,0.7c0.7,0.2,1.4,0.4,2,0.5c0.7,0.2,1.3,0.4,1.8,0.6c1.2,0.5,1.7,1.2,1.7,2
		c0,2-1.5,3-4.5,3C537.2,359.2,536.2,359.1,535.4,358.9z M160.7,207.8h18.9c0-2.3,0-4.6,0-6.9c0-2.7,0.3-3,2.9-3.1
		c16.7-0.4,33.5-0.7,50.2-1c0.6,0,1.2,0,2,0c-0.2-8.8-0.3-17.4-0.5-26.3c-1.4,0-2.7,0-3.9,0c-13.7,0.5-27.4,1-41.2,1.6
		c-6.7,0.3-13.4,0.8-20.1,1.4c-3.9,0.4-6.7,2.6-7.8,6.5c-0.6,2.1-0.9,4.4-0.9,6.6c0,6.1,0.2,12.2,0.2,18.3
		C160.7,206,160.7,206.9,160.7,207.8z M90.8,207.8c0-0.9,0-1.7,0-2.6c0-1.5,0.5-2.3,2.1-2.4c7.3-0.5,14.6-1.2,22-1.7
		c6.2-0.4,11.2,2.1,14.4,6.7h21.3c-1.3-5.2-3.4-10.2-6.5-14.9c-7.4-11.1-17.7-15.5-30.8-13.6c-11.9,1.8-23.7,3.6-35.6,5.3
		c-2.6,0.4-4.7,1.2-5.7,3.9v19.3H90.8z M243.4,207.8h19c-0.1-4.5-0.1-7.9-0.1-8.8c0-1.9,0.3-2.3,2.2-2.2c6.7,0.1,13.4,0.3,20.1,0.2
		c9.2-0.2,14.6,4.6,17.5,10.8h20.5c-1.8-8.9-5.8-17.1-12.1-24.6c-5.9-7-13.3-11.6-22.7-11.9c-13.2-0.5-26.4-0.6-39.6-0.8
		c-3.7-0.1-5.1,1.3-5.4,5c-0.1,0.7,0,1.4,0,2.1C243,187.7,243.2,197.7,243.4,207.8z M383.5,207.8c3.5-4.8,9.3-7.1,16.6-6.3
		c2.3,0.3,32.9,2.5,36.4,2.8v-18.6c-0.3-0.1-0.6-0.2-0.8-0.2c-13.6-1.9-27.1-4-40.7-5.6c-6.9-0.8-13.5,0.9-19.1,5.2
		c-6,4.6-10,10.8-12.3,17.9c-0.5,1.7-1,3.3-1.4,5H383.5z M351.9,207.8c-0.1-10.9-0.3-21.9-0.4-32.9c-6.5-0.5-12.8-0.9-19.2-1.4
		c0.2,11.5,0.3,22.9,0.5,34.3H351.9z M436.6,217.4c-6.3-0.3-12.4-0.5-18.7-0.8c0,0.9,0,1.5,0,2.1c0,5.9,0,11.8,0.1,17.7
		c0,1.3-0.3,2.2-1.8,2.3c-6.4,0.3-12.8,0.7-19.1,0.9c-3,0.1-5.8-0.7-8.3-2.5c-7-4.9-9.4-11.9-8.5-20.1c0.3-2.3,0.8-4.3,1.6-6.1
		h-20.2c-1.7,10.2-0.3,20.3,4,30.1c2.4,5.4,5.7,10.2,10.4,13.9c7,5.4,14.8,7.4,23.7,6.1c10.7-1.6,21.5-2.9,32.3-4.3
		c3.3-0.4,4.7-2,4.7-5.5c0-10.8,0-21.6,0-32.4C436.7,218.5,436.6,218,436.6,217.4z M303.3,211c2.6,8.2,2.1,16.2-2.8,23.6
		c-3.1,4.7-7.5,7.1-13.1,7.2c-3.6,0.1-18.3,0.1-22,0.1c-2.3,0-2.5-0.2-2.5-2.5c-0.1-6.5-0.3-19.1-0.5-28.5h-19
		c0.1,2.7,0.1,5.4,0.2,8.1c0.2,13.8,0.4,27.7,0.6,41.5c0,1.2,0.1,2.4,0.2,3.5c0.5,3.2,2,4.5,5.2,4.5c13.2-0.1,26.5-0.1,39.7-0.4
		c2.4,0,4.8-0.6,7.1-1.3c7.3-2.1,12.5-7.1,16.9-13c6.3-8.5,9.5-18.2,10.3-28.7c0.4-4.9,0.2-9.7-0.5-14.3H303.3z M332.7,211
		c0.3,18.6,0.5,37.1,0.8,55.7c6.4-0.4,12.6-0.7,19.1-1.1c-0.2-18.3-0.5-36.4-0.7-54.6H332.7z M131,211c1,2.2,1.6,4.7,1.9,7.4
		c0.6,6.1-1,11.7-5.3,16.3c-2.9,3-6.8,4.4-10.9,4.4c-8.1-0.1-16.2-0.5-24.3-0.8c-1.3,0-1.5-0.9-1.5-2c0-5.3,0-10.5,0-15.8h-0.1
		c0-3.2,0-6.3,0-9.5h-19v41.9c0.7,2.4,2.4,3.6,4.8,3.8c2.2,0.2,4.5,0.5,6.7,0.7c7.2,0.8,14.4,1.6,21.5,2.4c4.5,0.5,9,1.2,13.6,1.3
		c6.9,0.2,13.4-1.4,18.9-6c4.2-3.6,7.6-7.8,9.9-12.9c2.5-5.4,4-11.1,4.5-17c0.4-4.9,0.2-9.6-0.5-14.2H131z M233.9,242.6
		c-8.7-0.1-17.4-0.1-26.1-0.3c-8.4-0.1-16.7-0.3-25.1-0.5c-1.2,0-2.5-0.1-2.5-1.6c-0.1-3.9,0-7.8,0-11.9c0.7,0,1.3,0,2,0
		c17,0.1,33.9,0.1,50.9,0.2c1.4,0,1.9-0.3,1.8-1.8c-0.2-4.9-0.2-9.9-0.2-14.8c0-0.4,0-0.7,0-1h-73.8c0.2,14.3,0.3,28.6,0.6,42.9
		c0,2,0.6,4.2,1.3,6.1c1.3,3.4,4,5.3,7.6,5.5c7.9,0.5,15.7,1,23.6,1.3c13.4,0.6,26.9,1,40.4,1.5c0.4,0,0.8-0.1,1.3-0.1
		c0-0.3,0.1-0.6,0.1-0.8c-0.1-7.8-0.2-15.7-0.3-23.5C235.4,242.6,234.7,242.6,233.9,242.6z"/>
</g>
</svg>
