<?xml version="1.0" encoding="utf-8"?>
<!-- Generator: Adobe Illustrator 20.1.0, SVG Export Plug-In . SVG Version: 6.00 Build 0)  -->
<svg version="1.0" id="Camada_1" xmlns="http://www.w3.org/2000/svg" xmlns:xlink="http://www.w3.org/1999/xlink" x="0px" y="0px"
	 viewBox="0 0 537.8 307.6" style="enable-background:new 0 0 537.8 307.6;" xml:space="preserve" preserveAspectRatio="xMinYMin slice">
<style type="text/css">
	.st0{fill:#F6A623;}
	.st1{fill:#E56618;}
	.st2{fill:#EA4A8B;}
	.st3{fill:#2BA7E7;}
</style>
<g>
	<path class="st0" d="M9.4,62.6c-1.8-6.8,2.3-13.8,9.1-15.5c6.8-1.8,13.8,2.3,15.5,9.1c1.8,6.8-2.3,13.8-9.1,15.5
		C18.1,73.5,11.2,69.4,9.4,62.6"/>
	<path class="st0" d="M497,71.7c-6.8-1.8-10.9-8.7-9.1-15.5c1.8-6.8,8.7-10.9,15.5-9.1c6.8,1.8,10.9,8.7,9.1,15.5
		C510.7,69.4,503.8,73.5,497,71.7"/>
	<path class="st0" d="M60.2,188.5c1-2.6,3.1-3.5,5.7-3.9c11.9-1.7,23.7-3.5,35.6-5.3c13.1-2,23.5,2.5,30.8,13.6
		c6.6,9.8,8.7,20.7,7.7,32.3c-0.5,5.9-1.9,11.6-4.5,17c-2.4,5.1-5.7,9.3-9.9,12.9c-5.4,4.6-11.9,6.2-18.9,6
		c-4.5-0.1-9.1-0.8-13.6-1.3c-7.2-0.8-14.4-1.6-21.5-2.4c-2.2-0.3-4.5-0.5-6.7-0.7c-2.4-0.2-4.1-1.4-4.8-3.8V188.5z M79.1,220.5
		L79.1,220.5c0.1,5.3,0.1,10.5,0,15.8c0,1.1,0.2,1.9,1.5,2c8.1,0.3,16.2,0.7,24.3,0.8c4.1,0.1,8-1.3,10.9-4.4
		c4.4-4.5,5.9-10.1,5.3-16.2c-1-10.8-8.1-18-18.1-17.3c-7.3,0.5-14.6,1.2-22,1.7c-1.6,0.1-2.1,0.9-2.1,2.4
		C79.2,210.3,79.1,215.4,79.1,220.5"/>
	<path class="st0" d="M222.5,170.6c0.2,8.8,0.3,17.4,0.5,26.3c-0.8,0-1.4,0-2,0c-16.7,0.3-33.5,0.7-50.2,1c-2.6,0.1-2.9,0.4-2.9,3.1
		c0,3.1,0,6.3,0,9.6c0.8,0,1.4,0,2,0c17-0.2,33.9-0.4,50.9-0.6c2.1,0,2.2,0,2.2,2.1c0.1,4.9,0.1,9.9,0.2,14.8c0,1.5-0.5,1.8-1.8,1.8
		c-17-0.1-33.9-0.2-50.9-0.2c-0.7,0-1.4,0-2,0c0,4.1-0.1,8,0,11.9c0,1.5,1.3,1.6,2.5,1.6c8.4,0.2,16.7,0.4,25.1,0.5
		c8.7,0.1,17.4,0.2,26.1,0.3c0.9,0,1.5,0,1.5,1.2c0.1,7.8,0.2,15.7,0.3,23.5c0,0.3-0.1,0.5-0.1,0.9c-0.5,0-0.9,0.1-1.3,0.1
		c-13.5-0.5-26.9-0.9-40.4-1.5c-7.9-0.3-15.7-0.8-23.6-1.3c-3.6-0.2-6.3-2.1-7.6-5.5c-0.7-1.9-1.3-4-1.3-6.1
		c-0.3-16.3-0.5-32.5-0.7-48.8c-0.1-6.1-0.3-12.2-0.2-18.3c0-2.2,0.3-4.5,0.9-6.6c1-3.9,3.9-6.1,7.8-6.5c6.7-0.6,13.4-1.1,20.1-1.4
		c13.7-0.6,27.4-1.1,41.2-1.6C219.8,170.5,221,170.6,222.5,170.6"/>
	<path class="st0" d="M231.9,219.1c-0.3-13.8-0.5-27.7-0.8-41.5c0-0.7,0-1.4,0-2.1c0.3-3.7,1.7-5.1,5.4-5
		c13.2,0.2,26.4,0.3,39.6,0.8c9.3,0.3,16.7,4.9,22.7,11.9c10.3,12.2,14.3,26.4,13.1,42.1c-0.8,10.5-4,20.2-10.3,28.7
		c-4.4,5.9-9.6,10.9-16.9,13c-2.3,0.6-4.7,1.2-7.1,1.3c-13.2,0.2-26.5,0.3-39.7,0.4c-3.2,0-4.7-1.3-5.2-4.5
		c-0.2-1.2-0.2-2.3-0.2-3.5C232.3,246.8,232.1,232.9,231.9,219.1 M275.8,241.9c5.6-0.1,10-2.6,13.1-7.2c5-7.6,5.4-15.8,2.6-24.2
		c-2.5-7.6-8.1-13.7-18.5-13.5c-6.7,0.1-13.4-0.1-20.1-0.2c-1.9,0-2.2,0.3-2.2,2.2c0,2.8,0.4,29.8,0.6,40.5c0,2.3,0.2,2.5,2.5,2.5
		C257.5,242,272.2,241.9,275.8,241.9"/>
	<path class="st0" d="M424.9,217.4c0,0.6,0.1,1.1,0.1,1.5c0,10.8,0,21.6,0,32.4c0,3.5-1.4,5.1-4.7,5.5c-10.8,1.4-21.6,2.7-32.3,4.3
		c-8.9,1.3-16.7-0.7-23.7-6.1c-4.8-3.7-8.1-8.5-10.4-13.9c-5.4-12.5-6.2-25.3-2-38.3c2.3-7.1,6.3-13.3,12.3-17.9
		c5.6-4.3,12.2-6,19.1-5.2c13.6,1.7,27.2,3.7,40.7,5.6c0.3,0,0.5,0.2,0.8,0.2v18.6c-3.5-0.3-34.1-2.5-36.4-2.8
		c-11-1.3-18.7,4.6-20,15.6c-0.9,8.2,1.4,15.2,8.5,20.1c2.5,1.8,5.3,2.6,8.3,2.5c6.4-0.2,12.8-0.6,19.1-0.9c1.6-0.1,1.8-1,1.8-2.3
		c0-5.9,0-11.8-0.1-17.7c0-0.6,0-1.3,0-2.1C412.5,216.9,418.6,217.1,424.9,217.4"/>
	<path class="st0" d="M340.9,265.5c-6.5,0.4-12.6,0.7-19.1,1.1c-0.4-31.1-0.9-61.9-1.3-93.1c6.4,0.5,12.8,0.9,19.2,1.4
		C340.2,205.2,340.5,235.2,340.9,265.5"/>
</g>
<g>
	<path class="st1" d="M371.7,208h-21.3c-2.5,11.2-1.3,22.3,3.4,33.1c2.4,5.4,5.7,10.2,10.4,13.9c7,5.4,14.8,7.4,23.7,6.1
		c10.7-1.6,21.5-2.9,32.3-4.3c3.3-0.4,4.7-2,4.7-5.5c0-10.8,0-21.6,0-32.4c0-0.4,0-0.8-0.1-1.5c-6.3-0.3-12.4-0.5-18.7-0.8
		c0,0.9,0,1.5,0,2.2c0,5.9,0,11.8,0.1,17.7c0,1.3-0.3,2.2-1.8,2.3c-6.4,0.3-12.7,0.7-19.1,0.9c-3,0.1-5.8-0.7-8.3-2.5
		c-7-4.9-9.4-11.9-8.5-20.1C368.9,213.5,370,210.4,371.7,208"/>
	<path class="st1" d="M65,256.7c2.2,0.2,4.5,0.5,6.7,0.7c7.2,0.8,14.4,1.6,21.5,2.4c4.5,0.5,9,1.2,13.6,1.3c6.9,0.2,13.4-1.4,18.9-6
		c4.2-3.6,7.6-7.8,9.9-12.9c2.5-5.4,4-11.1,4.5-17c0.5-5.9,0.2-11.7-1.2-17.2h-21.2c1.9,2.8,3.1,6.3,3.5,10.4
		c0.6,6.1-1,11.7-5.3,16.2c-2.9,3-6.8,4.4-10.9,4.4c-8.1-0.1-16.2-0.5-24.3-0.8c-1.3,0-1.5-0.9-1.5-2c0-5.3,0-10.5,0-15.8h-0.1
		c0-4.2,0-8.3,0-12.5H60.2v44.9C60.9,255.3,62.6,256.4,65,256.7"/>
	<path class="st1" d="M231.9,219.1c0.2,13.8,0.4,27.7,0.6,41.5c0,1.2,0.1,2.4,0.2,3.5c0.5,3.2,2,4.5,5.2,4.5
		c13.2-0.1,26.5-0.1,39.7-0.4c2.4,0,4.8-0.6,7.1-1.3c7.3-2.1,12.5-7.1,16.9-13c6.3-8.5,9.5-18.2,10.3-28.7c0.4-6,0.1-11.8-1-17.3
		h-20.4c0.4,0.8,0.7,1.6,1,2.4c2.8,8.4,2.4,16.6-2.6,24.2c-3.1,4.7-7.5,7.1-13.1,7.2c-3.6,0.1-18.3,0.1-22,0.1
		c-2.3,0-2.5-0.2-2.5-2.5c-0.1-7.2-0.4-21.9-0.5-31.5h-19C231.8,211.7,231.9,215.4,231.9,219.1"/>
	<path class="st1" d="M321.8,266.6c6.4-0.4,12.6-0.7,19.1-1.1c-0.2-19.3-0.5-38.4-0.7-57.6H321C321.3,227.5,321.6,247,321.8,266.6"
		/>
	<path class="st1" d="M149.7,253.9c0,2,0.6,4.2,1.3,6.1c1.3,3.4,4,5.3,7.6,5.5c7.9,0.5,15.7,1,23.6,1.3c13.4,0.6,26.9,1,40.4,1.5
		c0.4,0,0.8-0.1,1.3-0.1c0-0.3,0.1-0.6,0.1-0.9c-0.1-7.8-0.2-15.7-0.3-23.5c0-1.2-0.7-1.2-1.5-1.2c-8.7-0.1-17.4-0.1-26.1-0.3
		c-8.4-0.1-16.7-0.3-25.1-0.5c-1.2,0-2.5-0.1-2.5-1.6c-0.1-3.9,0-7.8,0-11.9c0.7,0,1.3,0,2,0c17,0.1,33.9,0.1,50.9,0.2
		c1.4,0,1.9-0.3,1.8-1.8c-0.2-4.9-0.2-9.9-0.2-14.8c0-2.1-0.1-2.1-2.2-2.1c-17,0.2-33.9,0.4-50.9,0.6c-0.6,0-1.1,0-2,0
		c0-0.9,0-1.7,0-2.6H149C149.2,223.3,149.4,238.6,149.7,253.9"/>
</g>
<path class="st2" d="M451,54.4c-4.5-1-8.9-2-13.4-2.9c-4.5-0.9-9-1.8-13.5-2.6c-4.5-0.8-9-1.6-13.6-2.3c-4.5-0.7-9.1-1.4-13.6-2
	c-4.6-0.6-9.1-1.2-13.7-1.7c-4.6-0.5-9.1-1-13.7-1.4c-3.8-0.4-7.6-0.7-11.4-1c-0.9-2.7-1.7-5.5-2.5-8.3c-1-3.5-1.9-7-2.7-10.5
	c-0.3-1-1-2-2-2.4c-1.8-0.8-3.9,0.1-4.6,1.8l0,0l-14.1,32.8L319.4,2.8c-0.3-1.3-1.4-2.5-2.9-2.8c-2-0.4-4,0.9-4.5,2.9l0,0
	c-2.4,11.5-4.9,23.1-7.6,34.5c-9.3-0.2-18.6-0.4-27.9-0.5c-10.4-0.1-20.7,0-31.1,0.1L230,37.4c-5.2,0.1-10.4,0.2-15.5,0.4
	c-10.4,0.4-20.7,0.8-31,1.3c-5.2,0.3-10.3,0.5-15.5,0.9l-15.5,1c-5.2,0.4-10.3,0.7-15.5,1.2c-5.2,0.4-10.3,0.9-15.5,1.4
	c-5.2,0.5-10.3,1-15.5,1.6c-5.1,0.5-10.3,1.2-15.4,1.8c-5.1,0.7-10.3,1.4-15.4,2.2c-5.1,0.8-10.2,1.7-15.3,2.6
	c5.2-0.4,10.3-0.8,15.5-1.1c5.1-0.4,10.3-0.6,15.5-0.9c5.2-0.3,10.3-0.6,15.5-0.8l15.5-0.7c10.3-0.4,20.6-0.7,31-1.1l31-0.8
	c10.3-0.3,20.6-0.5,31-0.6l15.5-0.3l15.5-0.2l31-0.1c10.3,0,20.6,0.1,30.9,0.3l0,0c1.8,0,3.5-1.2,3.9-3.1c1.5-6.3,2.8-12.6,4.1-19
	l0.6-2.9l11.5,45.3l0,0c0.3,1,1,2,2.1,2.4c1.8,0.8,3.9-0.1,4.7-1.9l14.2-33.3c0.1,0.3,0.2,0.6,0.2,0.8c1,3.6,2.1,7.1,3.4,10.7l0,0.1
	c0.4,1.2,1.6,2.1,3,2.2c4.6,0.2,9.1,0.4,13.7,0.7c4.6,0.3,9.1,0.5,13.7,0.9c4.6,0.3,9.1,0.6,13.7,1c4.5,0.4,9.1,0.8,13.6,1.2
	c4.5,0.5,9.1,0.9,13.6,1.4c4.5,0.5,9.1,1.1,13.6,1.6c4.5,0.6,9.1,1.2,13.6,1.8c4.5,0.6,9.1,1.3,13.6,2
	C459.9,56.5,455.4,55.4,451,54.4"/>
<g>
	<g>
		<path class="st3" d="M524.2,257.2c2.3,0,4.5,0.6,6.7,1.8c2.2,1.2,3.9,2.9,5.1,5c1.2,2.2,1.8,4.5,1.8,6.8c0,2.4-0.6,4.6-1.8,6.8
			c-1.2,2.2-2.9,3.9-5,5.1s-4.4,1.8-6.8,1.8s-4.6-0.6-6.8-1.8c-2.2-1.2-3.9-2.9-5.1-5.1c-1.2-2.2-1.8-4.4-1.8-6.8
			c0-2.4,0.6-4.7,1.8-6.8c1.2-2.2,2.9-3.9,5.1-5C519.7,257.8,521.9,257.2,524.2,257.2z M524.2,259.5c-1.9,0-3.8,0.5-5.6,1.5
			c-1.8,1-3.2,2.4-4.3,4.2c-1,1.8-1.5,3.7-1.5,5.7c0,2,0.5,3.9,1.5,5.7c1,1.8,2.4,3.2,4.2,4.2c1.8,1,3.7,1.5,5.7,1.5
			c2,0,3.9-0.5,5.7-1.5c1.8-1,3.2-2.4,4.2-4.2c1-1.8,1.5-3.7,1.5-5.7c0-2-0.5-3.9-1.5-5.7c-1-1.8-2.4-3.2-4.3-4.2
			C528,260,526.1,259.5,524.2,259.5z M518.2,278.4v-14.7h5c1.7,0,3,0.1,3.7,0.4c0.8,0.3,1.4,0.7,1.8,1.4c0.5,0.7,0.7,1.4,0.7,2.2
			c0,1.1-0.4,2-1.1,2.8c-0.8,0.8-1.8,1.2-3,1.3c0.5,0.2,0.9,0.5,1.2,0.8c0.6,0.6,1.3,1.6,2.2,2.9l1.8,2.9h-2.9l-1.3-2.3
			c-1-1.8-1.9-3-2.5-3.4c-0.4-0.3-1.1-0.5-1.9-0.5h-1.4v6.2H518.2z M520.6,270.2h2.9c1.4,0,2.3-0.2,2.8-0.6c0.5-0.4,0.8-1,0.8-1.6
			c0-0.4-0.1-0.8-0.4-1.2c-0.2-0.3-0.6-0.6-1-0.8c-0.4-0.2-1.2-0.3-2.4-0.3h-2.7V270.2z"/>
	</g>
	<path class="st3" d="M493,152.3c-28.9-6.7-124.4-26.8-235.7-26.8c-110.8,0-200.7,19.9-228.4,26.7c-5.2,1.3-8.8,5.9-8.8,11.3v110.2
		c0,5.4,3.7,10.1,9,11.3c26.1,6.1,107.7,22.6,228.2,22.6c121.3,0,208.2-16.7,235.6-22.7c5.3-1.2,9.1-5.9,9.1-11.4v-110
		C502,158.2,498.3,153.5,493,152.3 M441.9,266.6c0,4.8-3.3,8.9-8,10c-24,5.3-69.9,19.9-176.2,19.9c-105.6,0-181.3-14.5-204.2-19.8
		c-4.6-1.1-7.9-5.2-7.9-9.9V170c0-4.7,3.2-8.8,7.7-9.9c24.3-6,107.2-23.4,204.3-23.4c97.6,0,150.9,17.6,176.3,23.5
		c4.6,1.1,7.9,5.2,7.9,9.9V266.6z M472,228.4c-6.5,0-11.8-5.3-11.8-11.8s5.3-11.8,11.8-11.8c6.5,0,11.8,5.3,11.8,11.8
		S478.5,228.4,472,228.4"/>
	<path class="st3" d="M63.7,93.2c-1.8-6.1-15.3-7.6-31-3.7c-2.9-5.5-4.9-9.6-4.9-9.6c-0.2-0.5-0.7-0.7-1.3-0.6
		c-0.5,0.1-0.9,0.5-0.9,1.1c0,0,0.1,4.6,0.1,10.8c-15.7,3.7-27,11.3-25.7,17.6c1.1,5.5,11.4,8.3,24.5,7.3c-1.2,9.4-5,24.4-5.2,26.8
		c0,0.5,0.1,1,0.3,1.5c0.5,1,1.7,1.7,2.8,1.5c0.5-0.1,10.3-2.7,19.2-5.1c9-2.1,18.9-4.2,19.4-4.4c1.1-0.3,1.8-1.4,1.8-2.6
		c0-0.5-0.2-1.1-0.4-1.5c-1.3-2.1-11.6-13.6-17-21.3C57.5,105.8,65.3,98.5,63.7,93.2 M25,113.4c-9.7,0.5-17.1-1.6-17.9-5.7
		c-0.9-4.7,7.2-10.3,18.8-13.3C25.8,100.5,25.5,107.6,25,113.4 M43.8,108.8c-3.2-4.9-6.7-11-9.6-16.4c11.6-2.7,21.5-1.5,22.8,3.1
		C58.2,99.4,52.7,104.7,43.8,108.8"/>
	<path class="st3" d="M476.5,111c-5.4,7.7-15.7,19.3-17,21.3c-0.3,0.4-0.4,0.9-0.4,1.5c0,1.2,0.7,2.3,1.8,2.6
		c0.5,0.2,10.4,2.3,19.4,4.4c8.9,2.3,18.7,5,19.2,5.1c1.1,0.2,2.2-0.5,2.8-1.5c0.3-0.5,0.4-1,0.3-1.5c-0.2-2.4-4-17.4-5.2-26.8
		c13.2,1,23.5-1.8,24.5-7.3c1.2-6.3-10.1-13.9-25.7-17.6c0-6.2,0.1-10.8,0.1-10.8c0-0.5-0.3-1-0.9-1.1c-0.5-0.1-1,0.1-1.3,0.6
		c0,0-2,4.1-4.9,9.6c-15.6-3.9-29.1-2.5-31,3.7C456.6,98.5,464.4,105.8,476.5,111 M496.1,94.4c11.5,3,19.7,8.6,18.8,13.3
		c-0.8,4.1-8.2,6.2-17.9,5.7C496.4,107.6,496.1,100.5,496.1,94.4 M464.8,95.4c1.4-4.6,11.2-5.8,22.8-3.1c-2.9,5.4-6.4,11.6-9.6,16.4
		C469.2,104.7,463.7,99.4,464.8,95.4"/>
</g>
</svg>
