<?xml version="1.0" encoding="utf-8"?>
<!-- Generator: Adobe Illustrator 18.0.0, SVG Export Plug-In . SVG Version: 6.00 Build 0)  -->
<!DOCTYPE svg PUBLIC "-//W3C//DTD SVG 1.0//EN" "http://www.w3.org/TR/2001/REC-SVG-20010904/DTD/svg10.dtd">
<svg version="1.0" id="Layer_1" xmlns="http://www.w3.org/2000/svg" xmlns:xlink="http://www.w3.org/1999/xlink" x="0px" y="0px"
	 viewBox="0 0 1920 40" enable-background="new 0 0 1920 40" xml:space="preserve">
<path fill="#266AB8" d="M0,0c124.8,0,175.8,35.6,239.9,35.6l0,0C304.1,35.6,355.1,0,479.9,0h0.1c124.8,0,175.7,35.6,239.9,35.6h0.1
	C784.2,35.6,835.2,0,959.9,0h0.1c124.8,0,175.7,35.6,239.9,35.6h0.1C1264.2,35.6,1315.2,0,1440,0h0.1c124.8,0,175.7,35.6,239.9,35.6
	l0.1,0C1744.3,35.6,1795.2,0,1920,0v40H0V0z"/>
</svg>
